<svg xmlns="http://www.w3.org/2000/svg" width="20.421" height="20.42" viewBox="0 0 20.421 20.42">
  <path id="Path_143" data-name="Path 143" d="M99.494,13.735c0-1.527-.017-3.055.005-4.583a5.041,5.041,0,0,1,1.243-3.245,5.214,5.214,0,0,1,2.69-1.7,5.317,5.317,0,0,1,1.391-.175q4.376,0,8.752,0a5.185,5.185,0,0,1,3.916,1.69,5.1,5.1,0,0,1,1.373,2.935,6.081,6.081,0,0,1,.044.743q0,4.339,0,8.679a5.219,5.219,0,0,1-1.695,3.956A5.094,5.094,0,0,1,114.3,23.4a6.217,6.217,0,0,1-.763.045q-4.334,0-8.669,0a5.239,5.239,0,0,1-3.619-1.358,5.1,5.1,0,0,1-1.666-2.983,6.28,6.28,0,0,1-.087-1.049c-.01-1.441,0-2.883,0-4.324Z" transform="translate(-98.988 -3.529)" fill="none" stroke="#099" stroke-miterlimit="10" stroke-width="1"/>
  <path id="Path_144" data-name="Path 144" d="M114.818,23.618a4.413,4.413,0,1,1,4.417-4.387A4.414,4.414,0,0,1,114.818,23.618Z" transform="translate(-104.574 -9.033)" fill="none" stroke="#099" stroke-miterlimit="10" stroke-width="1"/>
  <path id="Path_145" data-name="Path 145" d="M129.259,13.043a.881.881,0,1,1-.878-.881A.879.879,0,0,1,129.259,13.043Z" transform="translate(-113.312 -7.688)" fill="none" stroke="#099" stroke-miterlimit="10" stroke-width="1"/>
</svg>
