<svg xmlns="http://www.w3.org/2000/svg" width="19.59" height="20.56" viewBox="0 0 19.59 20.56">
  <path id="Path_141" data-name="Path 141" d="M213.02,26.061h-4.151V11.576h4.143v1.858A2.474,2.474,0,0,1,214.9,11.77a6.093,6.093,0,0,1,3.008-.062,3.994,3.994,0,0,1,3.065,2.993,7.136,7.136,0,0,1,.294,2.013c.011,3.079.007,6.157.007,9.236,0,.036-.005.072-.009.125h-4.115v-.266c0-2.644.007-5.288-.009-7.932a3.09,3.09,0,0,0-.195-1.013,1.571,1.571,0,0,0-1.419-1.083,3.814,3.814,0,0,0-1.2.09,1.748,1.748,0,0,0-1.3,1.831c-.011.761,0,1.521,0,2.282v6.077Z" transform="translate(-202.186 -6.015)" fill="none" stroke="#099" stroke-width="1"/>
  <rect id="Rectangle_32" data-name="Rectangle 32" width="4.047" height="14.483" transform="translate(0.516 5.555)" fill="none" stroke="#099" stroke-width="1"/>
  <path id="Path_142" data-name="Path 142" d="M197.332.5A2.036,2.036,0,1,1,195.3,2.527,2.031,2.031,0,0,1,197.332.5Z" transform="translate(-194.8)" fill="none" stroke="#099" stroke-width="1"/>
</svg>
