<svg xmlns="http://www.w3.org/2000/svg" width="29.175" height="20.571" viewBox="0 0 29.175 20.571">
  <path id="Path_146" data-name="Path 146" d="M14.326,25.469c-2.106-.046-4.213-.082-6.32-.14q-1.5-.042-3-.159a6.515,6.515,0,0,1-1.829-.357,3.273,3.273,0,0,1-2-2.08A9.76,9.76,0,0,1,.7,20.455a54.63,54.63,0,0,1-.192-5.9,36.394,36.394,0,0,1,.3-4.435,5.944,5.944,0,0,1,.688-2.166A3.263,3.263,0,0,1,3.88,6.305a19,19,0,0,1,2.212-.2c2.787-.145,5.576-.2,8.367-.2q2.695,0,5.39.059c1.21.024,2.42.075,3.629.142a12.28,12.28,0,0,1,1.968.209,3.367,3.367,0,0,1,2.589,2.359,9.915,9.915,0,0,1,.446,2.2,54.649,54.649,0,0,1,.192,5.915,36.051,36.051,0,0,1-.3,4.467,5.883,5.883,0,0,1-.675,2.12,3.268,3.268,0,0,1-2.353,1.656,13.188,13.188,0,0,1-1.971.195c-2.564.087-5.129.152-7.693.221-.453.012-.907,0-1.361,0Z" transform="translate(-0.001 -5.408)" fill="none" stroke="#099" stroke-miterlimit="10" stroke-width="1"/>
  <path id="Path_147" data-name="Path 147" d="M21.51,24.408V16.022l7.161,4.192Z" transform="translate(-9.441 -9.952)" fill="none" stroke="#099" stroke-miterlimit="10" stroke-width="1"/>
</svg>
